<svg width="600" height="658" xmlns="http://www.w3.org/2000/svg">
     <path fill="#f0f0f0" d="M0 0h600v658H0z"/>
     <g font-size="15" font-family="sans-serif">
          <text x="110" y="25" text-anchor="middle" font-size="120%">
               align-guraten
          </text>
          <path fill="#4682b4" d="M60 50h100v10H60z"/>
          <text x="170" y="60">
               0
          </text>
          <text x="220" y="60">
               Name.Age uint8 (size 1, align 1)
          </text>
          <path fill="#4682b4" d="M60 68h100v70H60z"/>
          <text x="170" y="78">
               1
          </text>
          <text x="220" y="78">
               Name._ [7]byte (size 7, align 1)
          </text>
          <text x="50" y="138" text-anchor="end">
               7
          </text>
          <path fill="#4682b4" d="M60 146h100v160H60z"/>
          <text x="170" y="156">
               8
          </text>
          <text x="220" y="156">
               Name.Wang string (size 16, align 8)
          </text>
          <text x="50" y="306" text-anchor="end">
               23
          </text>
          <path fill="#4682b4" d="M60 314h100v240H60z"/>
          <text x="170" y="324">
               24
          </text>
          <text x="220" y="324">
               Name.Good [3]int (size 24, align 8)
          </text>
          <text x="50" y="554" text-anchor="end">
               47
          </text>
          <path fill="#4682b4" d="M60 562h100v80H60z"/>
          <text x="170" y="572">
               48
          </text>
          <text x="220" y="572">
               Name.Point uintptr (size 8, align 8)
          </text>
          <text x="50" y="642" text-anchor="end">
               55
          </text>
     </g>
</svg>
